# xmcd
#
# Track frame offsets:
# 150
# 16990
# 30620
# 50070
# 63187
# 78295
# 97927
# 115590
# 132295
# 153285
# 165532
#
# Disc length: 2448 seconds
#
#
# Revision: 0
# Processed by: cddbd v1.5.2PL0 Copyright (c) Steve Scherf et al.
# Submitted via: FreeRIP 2.951 
#
DISCID=7a098e0b
DTITLE=Rodrigo and Rogério - Rodrigo and Rogério
DYEAR=1900
DGENRE=Country
TTITLE0=Dona da Verdade
TTITLE1=Primeiro Pecado
TTITLE2=Amor Perfeito
TTITLE3=Chama-me
TTITLE4=Quem Ta Parado É Viado
TTITLE5=É Você
TTITLE6=Quando Você Me Deixa
TTITLE7=Sem Saída
TTITLE8=Novamente
TTITLE9=Disco Voador
TTITLE10=Valeu
EXTD=
EXTT0=
EXTT1=
EXTT2=
EXTT3=
EXTT4=
EXTT5=
EXTT6=
EXTT7=
EXTT8=
EXTT9=
EXTT10=
PLAYORDER=
